<svg width="456" height="380" viewBox="0 0 456 380" fill="none" xmlns="http://www.w3.org/2000/svg">
<rect x="0.5" y="0.5" width="455" height="379" rx="4.5" stroke="#9747FF" stroke-dasharray="10 5"/>
<path d="M34.1299 47.748C34.1299 49.6396 34.4854 51.5122 35.1963 53.3657C35.9199 55.2065 36.9482 56.8633 38.2812 58.3359C39.627 59.7959 41.2012 60.9004 43.0039 61.6494L40.6807 65.001C38.6875 64.1504 36.9546 62.8745 35.4819 61.1733C34.0093 59.4722 32.8667 57.498 32.0542 55.251C31.2417 57.6631 30.0928 59.8022 28.6074 61.6685C27.1348 63.522 25.4082 64.9121 23.4277 65.8389L20.9902 62.5254C22.7549 61.7129 24.3037 60.5195 25.6367 58.9453C26.9824 57.3711 28.0171 55.6064 28.7407 53.6514C29.4644 51.6836 29.8262 49.7158 29.8262 47.748V44.8535H22.2471V41.3496H41.6709V44.8535H34.1299V47.748ZM49.7832 72.3896H45.5176V37.96H49.7832V72.3896ZM83.6081 42.9111H73.6105C73.7375 44.0283 74.277 45.0884 75.2292 46.0913C76.1813 47.0942 77.4826 47.9575 79.133 48.6812C80.7961 49.3921 82.7067 49.8682 84.8649 50.1094L83.2653 53.499C80.2057 53.1055 77.5778 52.2676 75.3815 50.9854C73.1979 49.7031 71.6364 48.1226 70.697 46.2437C69.7575 48.1226 68.196 49.7031 66.0124 50.9854C63.8288 52.2676 61.2136 53.1055 58.1667 53.499L56.6052 50.1094C58.7507 49.8682 60.6486 49.3921 62.299 48.6812C63.9494 47.9575 65.2443 47.0942 66.1838 46.0913C67.1232 45.0757 67.6628 44.0156 67.8024 42.9111H57.9001V39.5215H83.6081V42.9111ZM82.8845 71.7041H58.9284V61.8779H63.1559V68.2764H82.8845V71.7041ZM86.4264 59.5547H55.0436V56.0889H68.6022V51.0234H72.7917V56.0889H86.4264V59.5547ZM118.804 72.3896H114.767V54.9463H111.225V70.7139H107.226V38.5693H111.225V51.4424H114.767V37.96H118.804V72.3896ZM99.6468 46.7578C99.6468 50.0205 100.231 52.9214 101.399 55.4604C102.567 57.9995 104.369 59.8975 106.807 61.1543L104.331 64.3916C102.732 63.541 101.38 62.3921 100.275 60.9448C99.1835 59.4976 98.3202 57.8091 97.6854 55.8794C97.0887 58.0884 96.2318 60.0181 95.1146 61.6685C94.0101 63.3188 92.6263 64.6328 90.9632 65.6104L88.3734 62.373C90.8109 60.9893 92.6136 58.9326 93.7816 56.2031C94.9496 53.4609 95.5336 50.3125 95.5336 46.7578V45.1201H89.4017V41.7305H105.284V45.1201H99.6468V46.7578ZM141.203 57.1934H124.598V40.8164H141.203V57.1934ZM128.787 53.8037H137.014V44.2061H128.787V53.8037ZM151.524 62.5635H147.259V37.998H151.524V62.5635ZM152.477 71.4756H128.749V60.2402H133.015V68.0479H152.477V71.4756Z" fill="black"/>
<path d="M49.1914 99.9404V101.552H45.6758V112.978H43.7715V91.2734H45.6758V99.9404H49.1914ZM31.6865 93.4219V105.849C34.8604 105.836 38.0952 105.592 41.6719 104.848L41.916 106.483C38.1807 107.24 34.8115 107.46 31.5156 107.46H29.7822V93.4219H31.6865ZM68.1641 97.8652V99.4033H53.2959V92.0791H55.2002V97.8652H68.1641ZM70.459 102.357V103.92H50.5859V102.357H70.459ZM68.2861 110.854V112.44H53.1738V106.142H55.0781V110.854H68.2861ZM86.5049 97.9385C86.5049 101.625 89.1904 105.36 92.3887 106.752L91.3145 108.266C88.7754 107.106 86.5781 104.604 85.5771 101.601C84.5518 104.787 82.3667 107.558 79.8887 108.803L78.7412 107.289C81.8418 105.8 84.5518 101.698 84.5762 97.9385V95.1064H79.4492V93.5195H91.6807V95.1064H86.5049V97.9385ZM96.6367 91.2734V112.978H94.708V91.2734H96.6367ZM111.605 93.9834C111.581 96.6689 115.243 98.8662 119.076 99.3545L118.319 100.917C114.816 100.368 111.544 98.6343 110.36 96.083C109.188 98.6343 105.929 100.368 102.401 100.917L101.693 99.3545C105.526 98.8662 109.115 96.6689 109.115 93.9834V93.9346H102.279V92.3477H118.49V93.9346H111.605V93.9834ZM118.051 110.902V112.514H103.036V106.337H104.965V110.902H118.051ZM120.321 102.992V104.579H100.473V102.992H109.408V99.3545H111.288V102.992H120.321ZM127.331 95.5703C127.307 97.1084 127.746 99.5742 129.382 101.234C130.969 99.623 131.384 97.2061 131.408 95.5703V94.5205H129.846V92.9336H135.925V94.5205H133.239V95.5703C133.215 97.6943 134.24 100.502 136.755 101.796L135.681 103.188C133.984 102.296 132.922 100.709 132.36 98.9883C131.896 100.722 131.005 102.418 129.357 103.407C127.722 102.394 126.831 100.673 126.379 98.9395C125.805 100.673 124.743 102.272 123.059 103.188L122.009 101.796C124.475 100.478 125.524 97.5967 125.524 95.5703V94.5205H122.766V92.9336H128.894V94.5205H127.331V95.5703ZM139.611 91.2734V96.9619H142.395V98.5977H139.611V104.701H137.707V91.2734H139.611ZM132.531 104.921C137.048 104.921 139.807 106.386 139.807 108.925C139.807 111.488 137.048 112.929 132.531 112.929C128.015 112.929 125.256 111.488 125.256 108.925C125.256 106.386 128.015 104.921 132.531 104.921ZM132.531 106.483C129.187 106.483 127.185 107.387 127.185 108.925C127.185 110.487 129.187 111.391 132.531 111.391C135.852 111.391 137.854 110.487 137.878 108.925C137.854 107.387 135.852 106.483 132.531 106.483ZM149.062 95.5703C149.038 97.1084 149.478 99.5742 151.113 101.234C152.7 99.623 153.115 97.2061 153.14 95.5703V94.5205H151.577V92.9336H157.656V94.5205H154.971V95.5703C154.946 97.6943 155.972 100.502 158.486 101.796L157.412 103.188C155.715 102.296 154.653 100.709 154.092 98.9883C153.628 100.722 152.737 102.418 151.089 103.407C149.453 102.394 148.562 100.673 148.11 98.9395C147.537 100.673 146.475 102.272 144.79 103.188L143.74 101.796C146.206 100.478 147.256 97.5967 147.256 95.5703V94.5205H144.497V92.9336H150.625V94.5205H149.062V95.5703ZM161.343 91.2734V96.9619H164.126V98.5977H161.343V104.701H159.438V91.2734H161.343ZM154.263 104.921C158.779 104.921 161.538 106.386 161.538 108.925C161.538 111.488 158.779 112.929 154.263 112.929C149.746 112.929 146.987 111.488 146.987 108.925C146.987 106.386 149.746 104.921 154.263 104.921ZM154.263 106.483C150.918 106.483 148.916 107.387 148.916 108.925C148.916 110.487 150.918 111.391 154.263 111.391C157.583 111.391 159.585 110.487 159.609 108.925C159.585 107.387 157.583 106.483 154.263 106.483Z" fill="black"/>
<path d="M40.2314 138.934C40.2314 139.861 40.557 140.765 41.208 141.644C41.8672 142.522 42.7868 143.275 43.9668 143.902C45.1549 144.528 46.514 144.939 48.0439 145.135L46.9697 147.332C45.1143 147.055 43.4704 146.486 42.0381 145.623C40.6058 144.752 39.5275 143.69 38.8032 142.437C38.0789 143.69 37.0047 144.752 35.5806 145.623C34.1564 146.486 32.5247 147.055 30.6855 147.332L29.6113 145.135C31.125 144.939 32.4718 144.528 33.6519 143.902C34.8319 143.275 35.7474 142.522 36.3984 141.644C37.0495 140.765 37.375 139.861 37.375 138.934V137.811H40.2314V138.934ZM48.8496 151.482H40.085V159.173H37.3994V151.482H28.7324V149.236H48.8496V151.482ZM68.9453 150.213H66.2354V144.817H62.4756V142.596H66.2354V137.103H68.9453V150.213ZM61.4746 150.774C63.029 150.774 64.3717 150.941 65.5029 151.275C66.6423 151.6 67.513 152.081 68.1152 152.715C68.7174 153.342 69.0186 154.095 69.0186 154.974C69.0186 155.853 68.7174 156.605 68.1152 157.232C67.513 157.867 66.6423 158.347 65.5029 158.672C64.3717 159.006 63.029 159.173 61.4746 159.173C59.9284 159.173 58.5897 159.006 57.4585 158.672C56.3273 158.347 55.4606 157.867 54.8584 157.232C54.2643 156.605 53.9714 155.853 53.9795 154.974C53.9714 154.095 54.2643 153.342 54.8584 152.715C55.4606 152.081 56.3273 151.6 57.4585 151.275C58.5897 150.941 59.9284 150.774 61.4746 150.774ZM61.4746 152.85C59.9284 152.85 58.7402 153.033 57.9102 153.399C57.0801 153.757 56.665 154.282 56.665 154.974C56.665 155.657 57.0801 156.178 57.9102 156.536C58.7402 156.894 59.9284 157.073 61.4746 157.073C63.0208 157.073 64.2131 156.894 65.0513 156.536C65.8895 156.178 66.3086 155.657 66.3086 154.974C66.3086 154.282 65.8895 153.757 65.0513 153.399C64.2131 153.033 63.0208 152.85 61.4746 152.85ZM58.5693 140.887C58.5693 141.798 58.7687 142.685 59.1675 143.548C59.5662 144.402 60.1562 145.171 60.9375 145.855C61.7188 146.53 62.6628 147.055 63.7695 147.43L62.4023 149.578C61.2061 149.171 60.1685 148.573 59.2896 147.784C58.4188 146.986 57.7352 146.058 57.2388 145C56.7424 146.197 56.0343 147.243 55.1147 148.138C54.1951 149.025 53.0924 149.7 51.8066 150.164L50.3906 148.016C51.5381 147.625 52.5187 147.059 53.3325 146.319C54.1463 145.57 54.7607 144.728 55.1758 143.792C55.599 142.856 55.8105 141.896 55.8105 140.911V140.74H51.2207V138.543H63.1348V140.74H58.5693V140.887ZM89.4805 145.892H92.874V148.138H89.4805V159.173H86.7949V137.103H89.4805V145.892ZM85.0859 142.669H72.0732V140.496H77.2979V137.42H80.0078V140.496H85.0859V142.669ZM78.665 144.109C79.7148 144.109 80.6589 144.333 81.4971 144.781C82.3434 145.22 83.0067 145.835 83.4868 146.624C83.967 147.413 84.207 148.309 84.207 149.31C84.207 150.311 83.967 151.206 83.4868 151.995C83.0067 152.776 82.3434 153.387 81.4971 153.826C80.6589 154.266 79.7148 154.485 78.665 154.485C77.599 154.485 76.6427 154.266 75.7964 153.826C74.95 153.387 74.2868 152.776 73.8066 151.995C73.3265 151.206 73.0905 150.311 73.0986 149.31C73.0905 148.309 73.3265 147.413 73.8066 146.624C74.2868 145.835 74.95 145.22 75.7964 144.781C76.6427 144.333 77.599 144.109 78.665 144.109ZM78.665 146.331C78.0872 146.331 77.5705 146.453 77.1147 146.697C76.6672 146.941 76.3172 147.291 76.0649 147.747C75.8127 148.195 75.6865 148.715 75.6865 149.31C75.6865 149.904 75.8127 150.424 76.0649 150.872C76.3172 151.312 76.6672 151.653 77.1147 151.897C77.5705 152.133 78.0872 152.247 78.665 152.239C79.2266 152.247 79.7271 152.133 80.1665 151.897C80.6141 151.653 80.964 151.312 81.2163 150.872C81.4767 150.424 81.611 149.904 81.6191 149.31C81.611 148.715 81.4767 148.195 81.2163 147.747C80.964 147.299 80.6141 146.954 80.1665 146.709C79.7271 146.457 79.2266 146.331 78.665 146.331ZM112.359 159.173H109.625V137.103H112.359V159.173ZM105.768 139.446C105.768 142.954 104.974 146.034 103.387 148.687C101.8 151.332 99.1676 153.525 95.4893 155.267L94.0732 153.094C96.9134 151.743 99.0496 150.127 100.482 148.248C101.922 146.36 102.765 144.142 103.009 141.595H95.1963V139.446H105.768Z" fill="#38A1DD"/>
<path d="M28 160.833H114.801V162.933H28V160.833Z" fill="#38A1DD"/>
<path d="M34.1299 227.748C34.1299 229.64 34.4854 231.512 35.1963 233.366C35.9199 235.207 36.9482 236.863 38.2812 238.336C39.627 239.796 41.2012 240.9 43.0039 241.649L40.6807 245.001C38.6875 244.15 36.9546 242.875 35.4819 241.173C34.0093 239.472 32.8667 237.498 32.0542 235.251C31.2417 237.663 30.0928 239.802 28.6074 241.668C27.1348 243.522 25.4082 244.912 23.4277 245.839L20.9902 242.525C22.7549 241.713 24.3037 240.52 25.6367 238.945C26.9824 237.371 28.0171 235.606 28.7407 233.651C29.4644 231.684 29.8262 229.716 29.8262 227.748V224.854H22.2471V221.35H41.6709V224.854H34.1299V227.748ZM49.7832 252.39H45.5176V217.96H49.7832V252.39ZM83.6081 222.911H73.6105C73.7375 224.028 74.277 225.088 75.2292 226.091C76.1813 227.094 77.4826 227.958 79.133 228.681C80.7961 229.392 82.7067 229.868 84.8649 230.109L83.2653 233.499C80.2057 233.105 77.5778 232.268 75.3815 230.985C73.1979 229.703 71.6364 228.123 70.697 226.244C69.7575 228.123 68.196 229.703 66.0124 230.985C63.8288 232.268 61.2136 233.105 58.1667 233.499L56.6052 230.109C58.7507 229.868 60.6486 229.392 62.299 228.681C63.9494 227.958 65.2443 227.094 66.1838 226.091C67.1232 225.076 67.6628 224.016 67.8024 222.911H57.9001V219.521H83.6081V222.911ZM82.8845 251.704H58.9284V241.878H63.1559V248.276H82.8845V251.704ZM86.4264 239.555H55.0436V236.089H68.6022V231.023H72.7917V236.089H86.4264V239.555ZM118.804 252.39H114.767V234.946H111.225V250.714H107.226V218.569H111.225V231.442H114.767V217.96H118.804V252.39ZM99.6468 226.758C99.6468 230.021 100.231 232.921 101.399 235.46C102.567 238 104.369 239.897 106.807 241.154L104.331 244.392C102.732 243.541 101.38 242.392 100.275 240.945C99.1835 239.498 98.3202 237.809 97.6854 235.879C97.0887 238.088 96.2318 240.018 95.1146 241.668C94.0101 243.319 92.6263 244.633 90.9632 245.61L88.3734 242.373C90.8109 240.989 92.6136 238.933 93.7816 236.203C94.9496 233.461 95.5336 230.312 95.5336 226.758V225.12H89.4017V221.73H105.284V225.12H99.6468V226.758ZM141.203 237.193H124.598V220.816H141.203V237.193ZM128.787 233.804H137.014V224.206H128.787V233.804ZM151.524 242.563H147.259V217.998H151.524V242.563ZM152.477 251.476H128.749V240.24H133.015V248.048H152.477V251.476Z" fill="black"/>
<rect x="20.5" y="267.5" width="415" height="99" stroke="black"/>
<path d="M53.1914 291.94V293.552H49.6758V304.978H47.7715V283.273H49.6758V291.94H53.1914ZM35.6865 285.422V297.849C38.8604 297.836 42.0952 297.592 45.6719 296.848L45.916 298.483C42.1807 299.24 38.8115 299.46 35.5156 299.46H33.7822V285.422H35.6865ZM72.1641 289.865V291.403H57.2959V284.079H59.2002V289.865H72.1641ZM74.459 294.357V295.92H54.5859V294.357H74.459ZM72.2861 302.854V304.44H57.1738V298.142H59.0781V302.854H72.2861ZM90.5049 289.938C90.5049 293.625 93.1904 297.36 96.3887 298.752L95.3145 300.266C92.7754 299.106 90.5781 296.604 89.5771 293.601C88.5518 296.787 86.3667 299.558 83.8887 300.803L82.7412 299.289C85.8418 297.8 88.5518 293.698 88.5762 289.938V287.106H83.4492V285.52H95.6807V287.106H90.5049V289.938ZM100.637 283.273V304.978H98.708V283.273H100.637ZM115.605 285.983C115.581 288.669 119.243 290.866 123.076 291.354L122.319 292.917C118.816 292.368 115.544 290.634 114.36 288.083C113.188 290.634 109.929 292.368 106.401 292.917L105.693 291.354C109.526 290.866 113.115 288.669 113.115 285.983V285.935H106.279V284.348H122.49V285.935H115.605V285.983ZM122.051 302.902V304.514H107.036V298.337H108.965V302.902H122.051ZM124.321 294.992V296.579H104.473V294.992H113.408V291.354H115.288V294.992H124.321ZM131.331 287.57C131.307 289.108 131.746 291.574 133.382 293.234C134.969 291.623 135.384 289.206 135.408 287.57V286.521H133.846V284.934H139.925V286.521H137.239V287.57C137.215 289.694 138.24 292.502 140.755 293.796L139.681 295.188C137.984 294.296 136.922 292.709 136.36 290.988C135.896 292.722 135.005 294.418 133.357 295.407C131.722 294.394 130.831 292.673 130.379 290.939C129.805 292.673 128.743 294.272 127.059 295.188L126.009 293.796C128.475 292.478 129.524 289.597 129.524 287.57V286.521H126.766V284.934H132.894V286.521H131.331V287.57ZM143.611 283.273V288.962H146.395V290.598H143.611V296.701H141.707V283.273H143.611ZM136.531 296.921C141.048 296.921 143.807 298.386 143.807 300.925C143.807 303.488 141.048 304.929 136.531 304.929C132.015 304.929 129.256 303.488 129.256 300.925C129.256 298.386 132.015 296.921 136.531 296.921ZM136.531 298.483C133.187 298.483 131.185 299.387 131.185 300.925C131.185 302.487 133.187 303.391 136.531 303.391C139.852 303.391 141.854 302.487 141.878 300.925C141.854 299.387 139.852 298.483 136.531 298.483ZM153.062 287.57C153.038 289.108 153.478 291.574 155.113 293.234C156.7 291.623 157.115 289.206 157.14 287.57V286.521H155.577V284.934H161.656V286.521H158.971V287.57C158.946 289.694 159.972 292.502 162.486 293.796L161.412 295.188C159.715 294.296 158.653 292.709 158.092 290.988C157.628 292.722 156.737 294.418 155.089 295.407C153.453 294.394 152.562 292.673 152.11 290.939C151.537 292.673 150.475 294.272 148.79 295.188L147.74 293.796C150.206 292.478 151.256 289.597 151.256 287.57V286.521H148.497V284.934H154.625V286.521H153.062V287.57ZM165.343 283.273V288.962H168.126V290.598H165.343V296.701H163.438V283.273H165.343ZM158.263 296.921C162.779 296.921 165.538 298.386 165.538 300.925C165.538 303.488 162.779 304.929 158.263 304.929C153.746 304.929 150.987 303.488 150.987 300.925C150.987 298.386 153.746 296.921 158.263 296.921ZM158.263 298.483C154.918 298.483 152.916 299.387 152.916 300.925C152.916 302.487 154.918 303.391 158.263 303.391C161.583 303.391 163.585 302.487 163.609 300.925C163.585 299.387 161.583 298.483 158.263 298.483Z" fill="#6D6D6E"/>
<path d="M44.2314 330.934C44.2314 331.861 44.557 332.765 45.208 333.644C45.8672 334.522 46.7868 335.275 47.9668 335.902C49.1549 336.528 50.514 336.939 52.0439 337.135L50.9697 339.332C49.1143 339.055 47.4704 338.486 46.0381 337.623C44.6058 336.752 43.5275 335.69 42.8032 334.437C42.0789 335.69 41.0047 336.752 39.5806 337.623C38.1564 338.486 36.5247 339.055 34.6855 339.332L33.6113 337.135C35.125 336.939 36.4718 336.528 37.6519 335.902C38.8319 335.275 39.7474 334.522 40.3984 333.644C41.0495 332.765 41.375 331.861 41.375 330.934V329.811H44.2314V330.934ZM52.8496 343.482H44.085V351.173H41.3994V343.482H32.7324V341.236H52.8496V343.482ZM72.9453 342.213H70.2354V336.817H66.4756V334.596H70.2354V329.103H72.9453V342.213ZM65.4746 342.774C67.029 342.774 68.3717 342.941 69.5029 343.275C70.6423 343.6 71.513 344.081 72.1152 344.715C72.7174 345.342 73.0186 346.095 73.0186 346.974C73.0186 347.853 72.7174 348.605 72.1152 349.232C71.513 349.867 70.6423 350.347 69.5029 350.672C68.3717 351.006 67.029 351.173 65.4746 351.173C63.9284 351.173 62.5897 351.006 61.4585 350.672C60.3273 350.347 59.4606 349.867 58.8584 349.232C58.2643 348.605 57.9714 347.853 57.9795 346.974C57.9714 346.095 58.2643 345.342 58.8584 344.715C59.4606 344.081 60.3273 343.6 61.4585 343.275C62.5897 342.941 63.9284 342.774 65.4746 342.774ZM65.4746 344.85C63.9284 344.85 62.7402 345.033 61.9102 345.399C61.0801 345.757 60.665 346.282 60.665 346.974C60.665 347.657 61.0801 348.178 61.9102 348.536C62.7402 348.894 63.9284 349.073 65.4746 349.073C67.0208 349.073 68.2131 348.894 69.0513 348.536C69.8895 348.178 70.3086 347.657 70.3086 346.974C70.3086 346.282 69.8895 345.757 69.0513 345.399C68.2131 345.033 67.0208 344.85 65.4746 344.85ZM62.5693 332.887C62.5693 333.798 62.7687 334.685 63.1675 335.548C63.5662 336.402 64.1562 337.171 64.9375 337.855C65.7188 338.53 66.6628 339.055 67.7695 339.43L66.4023 341.578C65.2061 341.171 64.1685 340.573 63.2896 339.784C62.4188 338.986 61.7352 338.058 61.2388 337C60.7424 338.197 60.0343 339.243 59.1147 340.138C58.1951 341.025 57.0924 341.7 55.8066 342.164L54.3906 340.016C55.5381 339.625 56.5187 339.059 57.3325 338.319C58.1463 337.57 58.7607 336.728 59.1758 335.792C59.599 334.856 59.8105 333.896 59.8105 332.911V332.74H55.2207V330.543H67.1348V332.74H62.5693V332.887ZM88.918 330.055C89.984 330.055 90.9362 330.242 91.7744 330.616C92.6126 330.982 93.2677 331.503 93.7397 332.179C94.2118 332.854 94.4518 333.627 94.46 334.498C94.4518 335.214 94.2728 335.873 93.9229 336.476C93.5811 337.07 93.1009 337.566 92.4824 337.965C91.8639 338.364 91.1478 338.64 90.334 338.795V340.589C92.2952 340.475 94.0938 340.3 95.7295 340.064L95.9492 342.042C93.9066 342.408 91.7744 342.652 89.5527 342.774C87.3392 342.888 84.9873 342.945 82.4971 342.945L82.2041 340.772H83.3027C84.4827 340.772 85.915 340.752 87.5996 340.711V338.807C86.7614 338.669 86.0208 338.4 85.3779 338.001C84.7432 337.603 84.2508 337.102 83.9009 336.5C83.5591 335.898 83.3923 335.23 83.4004 334.498C83.3923 333.627 83.6201 332.854 84.084 332.179C84.556 331.503 85.2111 330.982 86.0493 330.616C86.8875 330.242 87.8438 330.055 88.918 330.055ZM88.918 332.13C88.332 332.13 87.8112 332.223 87.3555 332.411C86.9079 332.598 86.5579 332.87 86.3057 333.229C86.0534 333.587 85.9313 334.01 85.9395 334.498C85.9313 334.97 86.0534 335.385 86.3057 335.743C86.5579 336.093 86.9079 336.366 87.3555 336.561C87.8112 336.756 88.332 336.858 88.918 336.866C89.805 336.85 90.5212 336.63 91.0664 336.207C91.6117 335.784 91.8883 335.214 91.8965 334.498C91.8883 333.766 91.6117 333.188 91.0664 332.765C90.5212 332.341 89.805 332.13 88.918 332.13ZM99.7334 336.256H102.712V338.502H99.7334V345.973H97.0234V329.127H99.7334V336.256ZM100.515 350.709H85.2314V344.483H87.9414V348.512H100.515V350.709ZM124.15 348.609H103.984V346.363H109.331V342.726H106.377V335.523H119.072V332.813H106.328V330.616H121.758V337.696H109.087V340.528H122.271V342.726H119.048V346.363H124.15V348.609ZM116.387 346.363V342.726H111.968V346.363H116.387Z" fill="#38A1DD"/>
<path d="M32 352.833H124.858V354.933H32V352.833Z" fill="#38A1DD"/>
</svg>
