<svg width="114" height="78" viewBox="0 0 114 78" fill="none" xmlns="http://www.w3.org/2000/svg">
<path d="M57.0001 10.5833C76.5817 10.5833 94.0451 21.5883 102.57 39C94.0451 56.4117 76.6334 67.4167 57.0001 67.4167C37.3667 67.4167 19.9551 56.4117 11.4301 39C19.9551 21.5883 37.4184 10.5833 57.0001 10.5833ZM57.0001 0.25C31.1667 0.25 9.10508 16.3183 0.166748 39C9.10508 61.6817 31.1667 77.75 57.0001 77.75C82.8334 77.75 104.895 61.6817 113.833 39C104.895 16.3183 82.8334 0.25 57.0001 0.25ZM57.0001 26.0833C64.1301 26.0833 69.9167 31.87 69.9167 39C69.9167 46.13 64.1301 51.9167 57.0001 51.9167C49.8701 51.9167 44.0834 46.13 44.0834 39C44.0834 31.87 49.8701 26.0833 57.0001 26.0833ZM57.0001 15.75C44.1867 15.75 33.7501 26.1867 33.7501 39C33.7501 51.8133 44.1867 62.25 57.0001 62.25C69.8134 62.25 80.2501 51.8133 80.2501 39C80.2501 26.1867 69.8134 15.75 57.0001 15.75Z" fill="black"/>
</svg>
