<svg width="114" height="78" viewBox="0 0 114 78" fill="none" xmlns="http://www.w3.org/2000/svg">
<path d="M57.0001 0.25C31.1667 0.25 9.10508 16.3183 0.166748 39C9.10508 61.6817 31.1667 77.75 57.0001 77.75C82.8334 77.75 104.895 61.6817 113.833 39C104.895 16.3183 82.8334 0.25 57.0001 0.25ZM57.0001 64.8333C42.7401 64.8333 31.1667 53.26 31.1667 39C31.1667 24.74 42.7401 13.1667 57.0001 13.1667C71.2601 13.1667 82.8334 24.74 82.8334 39C82.8334 53.26 71.2601 64.8333 57.0001 64.8333ZM57.0001 23.5C48.4234 23.5 41.5001 30.4233 41.5001 39C41.5001 47.5767 48.4234 54.5 57.0001 54.5C65.5767 54.5 72.5001 47.5767 72.5001 39C72.5001 30.4233 65.5767 23.5 57.0001 23.5Z" fill="black"/>
</svg>
