<svg width="27" height="28" viewBox="0 0 27 28" fill="none" xmlns="http://www.w3.org/2000/svg">
<path fill-rule="evenodd" clip-rule="evenodd" d="M9.59062 2.75C8.71157 2.75736 7.84259 2.93779 7.03328 3.28099C6.22397 3.6242 5.49018 4.12346 4.87383 4.75026C4.25747 5.37706 3.77062 6.11913 3.44106 6.93409C3.1115 7.74906 2.9457 8.62096 2.95312 9.5V18.5C2.95312 22.226 5.92087 25.25 9.59062 25.25H17.4094C21.0802 25.25 24.0469 22.226 24.0469 18.5V9.5C24.0469 5.77288 21.0802 2.75 17.4094 2.75H9.59062ZM9.54899 5.5625C7.45987 5.5625 5.76562 7.36925 5.76562 9.60575V18.3943C5.76562 20.6308 7.45987 22.4375 9.54899 22.4375H17.4521C19.5401 22.4375 21.2344 20.6308 21.2344 18.3943V9.60575C21.2344 7.36925 19.5401 5.5625 17.4521 5.5625H9.54899Z" fill="#9C8CFF"/>
<path d="M14.9062 11.5531C14.9062 10.5687 15.7005 9.78125 16.6781 9.78125H17.3531C18.3375 9.78125 19.125 10.5755 19.125 11.5531V12.2281C19.125 13.2125 18.3308 14 17.3531 14H16.6781C16.2082 14 15.7575 13.8133 15.4252 13.481C15.0929 13.1487 14.9062 12.6981 14.9062 12.2281V11.5531ZM14.9062 17.8812C14.9062 16.8969 15.7005 16.1094 16.6781 16.1094H17.3531C18.3375 16.1094 19.125 16.9036 19.125 17.8812V18.5562C19.125 19.5406 18.3308 20.3281 17.3531 20.3281H16.6781C16.2082 20.3281 15.7575 20.1414 15.4252 19.8092C15.0929 19.4769 14.9062 19.0262 14.9062 18.5562V17.8812Z" fill="#9C8CFF"/>
</svg>
